<svg width="20" height="21" viewBox="0 0 20 21" fill="none" xmlns="http://www.w3.org/2000/svg">
<path d="M20 15.9909C19.2725 16.1759 18.8225 15.999 18.4187 15.3928L15.5475 11.4203L15.1325 10.8703L11.7794 15.4059C11.3962 15.9515 10.9944 16.189 10.2794 15.9959L14.5731 10.2322L10.5756 5.02591C11.2631 4.89216 11.7381 4.96029 12.16 5.57591L15.1381 9.59779L18.1381 5.59779C18.5225 5.05216 18.9356 4.84466 19.6256 5.04591L18.0756 7.10091L15.9756 9.83529C15.7256 10.1478 15.76 10.3615 15.99 10.6634L20 15.9909ZM0.005 10.1359L0.35625 8.40841C1.3125 4.98966 5.23125 3.56904 7.93375 5.68154C9.51313 6.92404 9.90563 8.68154 9.8275 10.6503H0.925C0.79125 14.194 3.34188 16.3328 6.59375 15.2415C7.73438 14.8584 8.40625 13.9653 8.7425 12.8478C8.91313 12.2878 9.19563 12.2003 9.72188 12.3603C9.45312 13.7578 8.84687 14.9253 7.56562 15.6559C5.65125 16.7497 2.91875 16.3959 1.48125 14.8759C0.625 13.994 0.27125 12.8765 0.1125 11.6815C0.0875 11.484 0.0375 11.2959 0 11.1065C0.00333333 10.7832 0.005 10.4599 0.005 10.1365V10.1359ZM0.94125 9.89841H8.98625C8.93375 7.33591 7.33812 5.51591 5.1575 5.50029C2.76375 5.48154 1.045 7.25841 0.94125 9.89841Z" fill="black"/>
</svg>
