<svg width="20" height="25" viewBox="0 0 20 25" fill="none" xmlns="http://www.w3.org/2000/svg">
<g clip-path="url(#clip0_407_221)">
<path d="M19.6227 11.0379L10.8928 2.3058C10.6512 2.06435 10.3235 1.92871 9.98189 1.92871C9.64027 1.92871 9.31263 2.06435 9.07095 2.3058L7.25578 4.11964L9.55578 6.41964C10.7638 6.0116 11.9076 7.1683 11.4928 8.36964L13.7098 10.5866C15.2379 10.0598 16.4411 11.9705 15.2932 13.1174C14.1107 14.3 12.1589 12.9893 12.7933 11.4504L10.7241 9.38392V14.8236C11.8535 15.3835 11.7178 16.692 11.1294 17.2791C10.842 17.5663 10.4522 17.7277 10.0457 17.7277C9.6393 17.7277 9.2495 17.5663 8.96203 17.2791C8.17765 16.4933 8.46783 15.1848 9.46426 14.7791V9.28794C8.53569 8.90803 8.36605 7.91562 8.63211 7.27902L6.3647 5.00892L0.377207 10.9973C0.135643 11.2389 -6.10352e-05 11.5666 -6.10352e-05 11.9083C-6.10352e-05 12.2499 0.135643 12.5776 0.377207 12.8192L9.10979 21.5513C9.35139 21.7928 9.67897 21.9284 10.0205 21.9284C10.3621 21.9284 10.6896 21.7928 10.9312 21.5513L19.6227 12.8598C19.8643 12.6182 20 12.2905 20 11.9489C20 11.6072 19.8643 11.2796 19.6227 11.0379Z" fill="#F34E3E"/>
</g>
<defs>
<clipPath id="clip0_407_221">
<rect width="20" height="24" fill="white" transform="translate(0 0.5)"/>
</clipPath>
</defs>
</svg>
