<svg width="20" height="25" viewBox="0 0 20 25" fill="none" xmlns="http://www.w3.org/2000/svg">
<path d="M0 1.92871V21.9287H20V1.92871H0ZM10.8839 17.5269C10.8839 19.4733 9.74107 20.3617 8.07589 20.3617C6.57143 20.3617 5.70089 19.5849 5.25447 18.6429L6.78572 17.7189C7.08036 18.2412 7.34821 18.6832 7.99553 18.6832C8.61161 18.6832 9.00447 18.4421 9.00447 17.5001V11.1118H10.8839V17.5269ZM15.3304 20.3617C13.5848 20.3617 12.4554 19.5313 11.9063 18.4421L13.4375 17.5581C13.8393 18.2144 14.3661 18.7011 15.2901 18.7011C16.0669 18.7011 16.5669 18.3127 16.5669 17.7724C16.5669 17.1296 16.058 16.9019 15.1964 16.5224L14.7277 16.3216C13.3705 15.7457 12.4732 15.018 12.4732 13.4868C12.4732 12.076 13.5491 11.0046 15.2232 11.0046C16.4196 11.0046 17.2768 11.4198 17.8928 12.5091L16.4285 13.4466C16.1072 12.8707 15.7589 12.643 15.2188 12.643C14.6696 12.643 14.3215 12.9912 14.3215 13.4466C14.3215 14.0091 14.6696 14.2368 15.4777 14.5895L15.9464 14.7903C17.5447 15.4733 18.442 16.1743 18.442 17.7457C18.442 19.4332 17.1116 20.3617 15.3304 20.3617Z" fill="#F7E038"/>
</svg>
