<svg width="20" height="20" viewBox="0 0 20 20" fill="none" xmlns="http://www.w3.org/2000/svg">
<g clip-path="url(#clip0_581_35)">
<path d="M13.858 13.2611C14.596 13.1847 15.1559 12.5485 15.1305 11.7849C15.1051 11.0214 14.4688 10.4105 13.7052 10.4105H13.6544C12.8653 10.436 12.2545 11.0977 12.28 11.8867C12.3055 12.2685 12.4581 12.5993 12.6872 12.8284C11.8219 14.5337 10.4984 15.7808 8.51325 16.8243C7.16434 17.537 5.76456 17.7915 4.36479 17.6134C3.21947 17.4607 2.32868 16.9517 1.76868 16.1117C0.954302 14.8646 0.877973 13.5156 1.56516 12.1667C2.04876 11.1995 2.8122 10.4868 3.2958 10.1305C3.194 9.79964 3.04127 9.23972 2.96494 8.83253C-0.725474 11.5049 -0.343675 15.1191 0.776176 16.8243C1.61602 18.097 3.32127 18.886 5.20464 18.886C5.71363 18.886 6.22261 18.835 6.73168 18.7078C9.98943 18.0715 12.4582 16.1371 13.858 13.2611V13.2611ZM18.3374 10.1051C16.4031 7.83987 13.5526 6.59276 10.2948 6.59276H9.88764C9.65857 6.13464 9.17497 5.82917 8.64052 5.82917H8.58958C7.80067 5.85464 7.18989 6.51636 7.21528 7.30542C7.24075 8.06893 7.877 8.67979 8.64052 8.67979H8.69138C9.2513 8.65433 9.7349 8.298 9.93849 7.8144H10.3966C12.3309 7.8144 14.1634 8.37433 15.8177 9.46878C17.0903 10.3087 18.0065 11.4032 18.5155 12.7266C18.9482 13.7956 18.9227 14.8391 18.4646 15.7299C17.752 17.0789 16.5558 17.817 14.9778 17.817C13.9598 17.817 12.9927 17.5115 12.4836 17.2824C12.2037 17.537 11.6946 17.9442 11.3383 18.1988C12.4327 18.7078 13.5526 18.9878 14.6215 18.9878C17.0648 18.9878 18.8718 17.6388 19.559 16.2899C20.2971 14.8136 20.2461 12.2685 18.3374 10.1051V10.1051ZM5.40823 13.6937C5.4337 14.4573 6.06996 15.0681 6.83348 15.0681H6.88441C7.6734 15.0427 8.28419 14.3809 8.25872 13.5919C8.23333 12.8283 7.597 12.2175 6.83348 12.2175H6.78262C6.73168 12.2175 6.65527 12.2175 6.60449 12.2429C5.56097 10.5122 5.12831 8.62886 5.28105 6.59268C5.38277 5.06558 5.89183 3.74206 6.78262 2.64761C7.52067 1.70589 8.94591 1.24776 9.9131 1.22237C12.6109 1.17144 13.7561 4.53104 13.8325 5.88003C14.1634 5.95636 14.7233 6.13456 15.1051 6.26183C14.7996 2.1387 12.2545 0.000732422 9.81131 0.000732422C7.52067 0.000732422 5.40823 1.65511 4.56831 4.09847C3.3976 7.35628 4.16112 10.4868 5.58636 12.9557C5.45917 13.1338 5.38276 13.4138 5.40823 13.6938V13.6937Z" fill="#764ABC"/>
</g>
<defs>
<clipPath id="clip0_581_35">
<rect width="20" height="19.064" fill="white"/>
</clipPath>
</defs>
</svg>
