<svg width="20" height="30" viewBox="0 0 20 30" fill="none" xmlns="http://www.w3.org/2000/svg">
<g clip-path="url(#clip0_407_260)">
<path d="M5.00101 29.994C7.76045 29.994 10 27.7544 10 24.995V19.996H5.00101C2.24156 19.996 0.00201416 22.2355 0.00201416 24.995C0.00201416 27.7544 2.24156 29.994 5.00101 29.994Z" fill="#0ACF83"/>
<path d="M0.00201416 14.997C0.00201416 12.2376 2.24156 9.99805 5.00101 9.99805H10V19.996H5.00101C2.24156 19.996 0.00201416 17.7565 0.00201416 14.997Z" fill="#A259FF"/>
<path d="M0.00201416 4.999C0.00201416 2.23955 2.24156 0 5.00101 0H10V9.998H5.00101C2.24156 9.998 0.00201416 7.75845 0.00201416 4.999Z" fill="#F24E1E"/>
<path d="M10 0H14.999C17.7585 0 19.998 2.23955 19.998 4.999C19.998 7.75845 17.7585 9.998 14.999 9.998H10V0Z" fill="#FF7262"/>
<path d="M19.998 14.997C19.998 17.7565 17.7585 19.996 14.999 19.996C12.2396 19.996 10 17.7565 10 14.997C10 12.2376 12.2396 9.99805 14.999 9.99805C17.7585 9.99805 19.998 12.2376 19.998 14.997Z" fill="#1ABCFE"/>
</g>
<defs>
<clipPath id="clip0_407_260">
<rect width="20" height="29.994" fill="white"/>
</clipPath>
</defs>
</svg>
