<svg width="20" height="21" viewBox="0 0 20 21" fill="none" xmlns="http://www.w3.org/2000/svg">
<g clip-path="url(#clip0_407_278)">
<path d="M9.93747 0.54834L10.4712 1.55084C10.5912 1.73584 10.7212 1.89959 10.8743 2.05209C11.3212 2.49896 11.7456 2.96709 12.1268 3.46834C13.0312 4.65584 13.6412 5.97459 14.0768 7.40084C14.3381 8.27209 14.48 9.16584 14.4906 10.0696C14.5343 12.7715 13.6081 15.0915 11.7406 17.0196C11.4356 17.3246 11.1093 17.6071 10.7593 17.8583C10.5743 17.8583 10.4868 17.7165 10.4106 17.5858C10.2687 17.3465 10.1818 17.0733 10.1381 16.8015C10.0725 16.4746 10.0293 16.1477 10.0506 15.8102V15.6577C10.0356 15.6252 9.87247 0.625215 9.93747 0.54834Z" fill="#599636"/>
<path d="M9.93748 0.515276C9.91561 0.471526 9.89373 0.504651 9.87186 0.525901C9.88248 0.744651 9.80623 0.939651 9.68686 1.1259C9.55561 1.3109 9.38186 1.45278 9.20748 1.60528C8.23873 2.44403 7.47623 3.45715 6.8656 4.59028C6.0531 6.11528 5.63435 7.74965 5.5156 9.47028C5.46123 10.0909 5.71185 12.2809 5.90748 12.9128C6.44123 14.5903 7.39998 15.9959 8.64186 17.2159C8.94686 17.5097 9.27311 17.7822 9.61061 18.044C9.70873 18.044 9.71936 17.9565 9.74186 17.8915C9.78488 17.7524 9.81767 17.6104 9.83998 17.4665L10.0587 15.8328L9.93748 0.515276Z" fill="#6CAC48"/>
<path d="M10.4712 18.5221C10.4931 18.2721 10.6131 18.0646 10.7437 17.8577C10.6125 17.8034 10.515 17.6952 10.4387 17.5746C10.3731 17.4659 10.3187 17.3352 10.2762 17.2152C10.1237 16.7577 10.0912 16.2777 10.0475 15.8102V15.5271C9.9931 15.5708 9.98185 15.9408 9.98185 15.9958C9.95004 16.49 9.88447 16.9813 9.7856 17.4665C9.7531 17.6627 9.73122 17.8584 9.6106 18.0327C9.6106 18.0546 9.6106 18.0765 9.62122 18.109C9.81747 18.6865 9.87122 19.2746 9.90435 19.874V20.0927C9.90435 20.354 9.89372 20.299 10.1106 20.3865C10.1981 20.419 10.2956 20.4302 10.3831 20.4952C10.4487 20.4952 10.4593 20.4409 10.4593 20.3971L10.4268 20.0377V19.0352C10.4162 18.8602 10.4487 18.6865 10.4706 18.5227L10.4712 18.5221Z" fill="#C2BFBF"/>
</g>
<defs>
<clipPath id="clip0_407_278">
<rect width="20" height="20" fill="white" transform="translate(0 0.494019)"/>
</clipPath>
</defs>
</svg>
