<svg width="20" height="21" viewBox="0 0 20 21" fill="none" xmlns="http://www.w3.org/2000/svg">
<path d="M16.336 7.422C16.1251 7.35168 15.914 7.28528 15.7031 7.22278C15.7383 7.07826 15.7695 6.93372 15.8008 6.78919C16.2812 4.46107 15.9648 2.58996 14.8984 1.97278C13.8711 1.38294 12.1953 1.99622 10.5 3.47278C10.332 3.61731 10.168 3.76966 10.0117 3.922C9.90625 3.82044 9.79688 3.71887 9.68749 3.62122C7.91016 2.0431 6.12891 1.37903 5.06251 2.00012C4.03907 2.59387 3.73437 4.35559 4.16407 6.55872C4.20703 6.77747 4.25391 6.99231 4.3086 7.21107C4.0586 7.28138 3.81249 7.3595 3.58203 7.44154C1.49609 8.16419 0 9.30482 0 10.4845C0 11.7033 1.59375 12.9259 3.76172 13.6681C3.93751 13.7267 4.11328 13.7853 4.29297 13.8361C4.23437 14.0705 4.1836 14.3009 4.13672 14.5392C3.72656 16.7072 4.04688 18.426 5.07031 19.0157C6.125 19.6252 7.89844 19.0001 9.625 17.4884C9.76172 17.3673 9.89844 17.2424 10.0352 17.1096C10.207 17.2774 10.3867 17.4376 10.5664 17.5938C12.2383 19.0314 13.8907 19.6134 14.9101 19.0236C15.9648 18.4142 16.3085 16.5665 15.8633 14.3165C15.8281 14.1446 15.7891 13.9689 15.7461 13.7892C15.8711 13.754 15.9921 13.715 16.1133 13.6759C18.3672 12.9298 20 11.7228 20 10.4845C20 9.30091 18.4609 8.15247 16.336 7.422ZM11.0508 4.10559C12.5039 2.83996 13.8593 2.34387 14.4765 2.69935C15.1367 3.07826 15.3907 4.6095 14.9765 6.62122C14.9492 6.75403 14.9219 6.88294 14.8867 7.01184C14.0195 6.81654 13.1406 6.67591 12.2578 6.59778C11.75 5.87122 11.1953 5.17591 10.5937 4.52356C10.7461 4.37903 10.8945 4.24231 11.0508 4.10559ZM6.53125 12.5118C6.73047 12.8517 6.9336 13.1915 7.14844 13.5236C6.53907 13.4572 5.9336 13.3595 5.33593 13.2306C5.50781 12.6681 5.72265 12.0861 5.97265 11.4923C6.15235 11.8361 6.33593 12.1759 6.53125 12.5118ZM5.34765 7.81263C5.91016 7.68763 6.50781 7.58606 7.12891 7.50794C6.92188 7.83216 6.71875 8.16419 6.52735 8.50012C6.33593 8.83216 6.14844 9.172 5.97265 9.51575C5.72656 8.93372 5.51953 8.3634 5.34765 7.81263ZM6.41797 10.504C6.67579 9.96498 6.95703 9.43763 7.25391 8.9181C7.55079 8.39856 7.87109 7.89466 8.20703 7.39856C8.79297 7.35559 9.39063 7.33216 10 7.33216C10.6094 7.33216 11.2109 7.35559 11.793 7.39856C12.125 7.89075 12.4414 8.39466 12.7422 8.91028C13.043 9.42591 13.3242 9.95326 13.5899 10.4884C13.3281 11.0275 13.0469 11.5587 12.7461 12.0822C12.4492 12.6017 12.1328 13.1056 11.8008 13.6056C11.2187 13.6486 10.6133 13.6681 10 13.6681C9.38672 13.6681 8.79297 13.6486 8.21875 13.6134C7.87891 13.1173 7.5586 12.6095 7.25781 12.09C6.95703 11.5704 6.67969 11.0431 6.41797 10.504ZM13.4727 12.504C13.6719 12.1603 13.8593 11.8126 14.0429 11.4611C14.2929 12.0275 14.5117 12.6017 14.7031 13.1915C14.0976 13.3283 13.4844 13.4337 12.8672 13.504C13.0781 13.1759 13.2773 12.84 13.4727 12.504ZM14.0352 9.51575C13.8516 9.172 13.664 8.82826 13.4688 8.49231C13.2773 8.16028 13.0781 7.83216 12.8711 7.50794C13.5 7.58606 14.1016 7.69154 14.664 7.82044C14.4844 8.39856 14.2735 8.96107 14.0352 9.51575ZM10.0078 5.12122C10.418 5.56654 10.8047 6.03528 11.1641 6.51966C10.3906 6.4845 9.61328 6.4845 8.83984 6.51966C9.22265 6.01575 9.61719 5.547 10.0078 5.12122ZM5.47656 2.72668C6.13281 2.34387 7.58984 2.89075 9.125 4.25012C9.22265 4.33607 9.32031 4.42982 9.42188 4.52356C8.8164 5.17591 8.25781 5.87122 7.74609 6.59778C6.86328 6.67591 5.98828 6.81263 5.12109 7.00403C5.07031 6.80482 5.02735 6.60168 4.98437 6.39856C4.61719 4.50794 4.85937 3.08216 5.47656 2.72668ZM4.51953 13.0236C4.35547 12.9767 4.19531 12.9259 4.03516 12.8712C3.20312 12.6095 2.25781 12.1954 1.57421 11.6525C1.17969 11.379 0.914063 10.9572 0.839844 10.4845C0.839844 9.76966 2.07421 8.85559 3.85547 8.2345C4.07812 8.15638 4.30469 8.08607 4.53125 8.01966C4.79688 8.86731 5.11719 9.69935 5.48828 10.504C5.11328 11.3204 4.78907 12.1642 4.51953 13.0236ZM9.07421 16.8517C8.42969 17.4416 7.6836 17.9102 6.87109 18.2306C6.43749 18.4376 5.93751 18.4572 5.49219 18.2814C4.87109 17.922 4.61328 16.543 4.96484 14.6876C5.00781 14.4689 5.05469 14.2501 5.10937 14.0353C5.98437 14.2228 6.86719 14.3517 7.76172 14.4181C8.27735 15.1486 8.84375 15.8478 9.44921 16.5041C9.32421 16.6252 9.19921 16.7424 9.07421 16.8517ZM10.0313 15.9025C9.63281 15.4728 9.23437 14.9962 8.84765 14.4845C9.22265 14.5001 9.60937 14.508 10 14.508C10.4023 14.508 10.7969 14.5001 11.1875 14.4806C10.8281 14.9766 10.4414 15.4493 10.0313 15.9025ZM15.1367 17.0744C15.1016 17.5509 14.8672 17.9962 14.4921 18.297C13.8711 18.6564 12.5469 18.1876 11.1172 16.961C10.9531 16.8205 10.7891 16.6681 10.6211 16.5118C11.2187 15.8517 11.7695 15.1525 12.2695 14.4181C13.1641 14.3438 14.0547 14.2072 14.9336 14.008C14.9727 14.1681 15.0079 14.3282 15.0391 14.4845C15.2305 15.3282 15.2617 16.2072 15.1367 17.0744ZM15.8476 12.8751C15.7383 12.9103 15.6289 12.9454 15.5156 12.9767C15.2421 12.1251 14.9063 11.2931 14.5195 10.4845C14.8945 9.68763 15.2109 8.86731 15.4765 8.02747C15.6797 8.08607 15.8751 8.14856 16.0625 8.21106C17.8828 8.83606 19.1601 9.76575 19.1601 10.4767C19.1601 11.2423 17.7969 12.2306 15.8476 12.8751ZM10 12.2892C10.9883 12.2892 11.7891 11.4884 11.7891 10.5001C11.7891 9.51184 10.9883 8.71107 10 8.71107C9.01172 8.71107 8.21093 9.51184 8.21093 10.5001C8.21093 11.4884 9.01172 12.2892 10 12.2892Z" fill="#62DAFA"/>
</svg>
