<svg width="20" height="21" viewBox="0 0 20 21" fill="none" xmlns="http://www.w3.org/2000/svg">
<g clip-path="url(#clip0_407_216)">
<path d="M18.4625 15.9144L10.3563 20.5V16.9294L15.4063 14.1506L18.4625 15.9144ZM19.0175 15.4125V5.825L16.0525 7.53875V13.7025L19.0175 15.4125ZM1.53876 15.9144L9.64376 20.5V16.9294L4.59064 14.15L1.53876 15.9144ZM0.983765 15.4125V5.825L3.94876 7.53875V13.7025L0.983765 15.4125ZM1.33126 5.2025L9.64376 0.5V3.95125L4.27501 6.90625L1.33126 5.2025ZM18.6688 5.2025L10.3563 0.5V3.95125L15.725 6.90312L18.6688 5.2025Z" fill="#8ED6FB"/>
<path d="M9.64372 16.2732L4.65997 13.5313V8.1038L9.64372 10.9813V16.2732ZM10.3562 16.2732L15.3406 13.5338V8.10255L10.3562 10.9813V16.2732ZM4.99747 7.4763L9.99997 4.72693L15.0025 7.47693L9.99997 10.3644L4.99747 7.4763Z" fill="#1C78C0"/>
</g>
<defs>
<clipPath id="clip0_407_216">
<rect width="20" height="20" fill="white" transform="translate(0 0.5)"/>
</clipPath>
</defs>
</svg>
